# xmcd
#
# Track frame offsets:
#	150
#	14160
#	27525
#	38172
#	50924
#	58655
#	70239
#	84373
#	96933
#	110808
#	121649
#	133330
#	143114
#	159811
#	171072
#	179269
#
# Disc length: 2512 seconds
#
# Revision: 0
# Processed by: cddbd v1.5.2PL0 Copyright (c) Steve Scherf et al.
# Submitted via: EasyCDDAExtractor 16.0.8.2
#
DISCID=e309ce10
DTITLE=Χριστοδουλόπουλος Μάκης - Πρώτη εκτέλεση-Μ. Χριστοδουλόπουλος
DYEAR=2015
DGENRE=Λαϊκή
TTITLE0=Παντρεμένοι κι οι δυό [Μ. Χριστοδουλόπουλος]
TTITLE1=Αδειανό το προσκεφάλι [Γ. Κόρος-Λ. Τσώλης]
TTITLE2=Με δίκασες [Κ. Φερεντίνος]
TTITLE3=Το μελαχροινάκι [Μ. Χριστοδουλόπουλος]
TTITLE4=Όλα πάνε καλά [Γ. Κόρος-Λ. Τσώλης]
TTITLE5=Γύρνα κοντά μου [Κ. Φερεντίνος]
TTITLE6=Οι κούκλες [Γ. Κόρος-Λ. Τσώλης]
TTITLE7=Μόνο εσύ [Γ. Κόρος-Λ. Τσώλης]
TTITLE8=Τσιγγάνα [Κ. Φερεντίνος]
TTITLE9=Σ' αγαπώ και υποφέρω [Ι. Μαρκόπουλος-Β. Γκοβόπουλος]
TTITLE10=Βασανάκι [Κ. Φερεντίνος]
TTITLE11=Γιατί θυμώνεις [Γ. Κόρος-Λ. Τσώλης]
TTITLE12=Αίμα στάζει η καρδιά μου [Κ. Φερεντίνος]
TTITLE13=Τώρα που φεύγεις μακριά [Γ.Κόρος-Μ.Χριστοδουλόπουλος]
TTITLE14=Πίνω το κρασί μου και φεύγω [Γ.Κόρος-Μ.Χριστοδουλόπουλος]
TTITLE15=Έχω παράπονο πικρό [Γ. Κόρος-Λ. Τσώλης]
EXTD=
EXTT0=
EXTT1=
EXTT2=
EXTT3=
EXTT4=
EXTT5=
EXTT6=
EXTT7=
EXTT8=
EXTT9=
EXTT10=
EXTT11=
EXTT12=
EXTT13=
EXTT14=
EXTT15=
PLAYORDER=
